Coordinates
nRows=9
nColumns=38

# SIMM Motion File Header:
name Coordinates
datacolumns 38
datarows 9
otherdata 1
range 1.23540000000000010000 1.24340000000000010000

Units are S.I. units (second, meters, Newtons, ...)
Angles are in degrees.

endheader
time	pelvis_tilt	pelvis_list	pelvis_rotation	pelvis_tx	pelvis_ty	pelvis_tz	hip_flexion_r	hip_adduction_r	hip_rotation_r	knee_angle_r	ankle_angle_r	subtalar_angle_r	mtp_angle_r	hip_flexion_l	hip_adduction_l	hip_rotation_l	knee_angle_l	ankle_angle_l	subtalar_angle_l	mtp_angle_l	lumbar_extension	lumbar_bending	lumbar_rotation	arm_flex_r	arm_add_r	arm_rot_r	elbow_flex_r	pro_sup_r	wrist_flex_r	wrist_dev_r	arm_flex_l	arm_add_l	arm_rot_l	elbow_flex_l	pro_sup_l	wrist_flex_l	wrist_dev_l
      1.23540000000000010000	     -4.16785339581415750000	      1.84939051475012790000	     -3.11010322417120830000	      0.90542025782934976000	      1.01113821423034160000	     -0.28455060458860781000	     26.43409453705284000000	      4.12673592464108200000	     11.94456404464492600000	    -12.92176767692593300000	      8.96232308841507040000	      0.00000000000000000000	      0.00000000000000000000	    -15.60690398896315400000	      6.39857177103876400000	      1.38356267698248230000	    -43.18327296521099600000	    -23.99979613969518900000	      0.00000000000000000000	      0.00000000000000000000	     -3.92451095905989880000	      0.53470518664492406000	    -16.88202481600875200000	    -48.79997882229653800000	    -21.67985742806839900000	     -7.10736550322501690000	     81.34651926867358900000	    105.28056698991010000000	      0.00000000000000000000	      0.00000000000000000000	    -26.86218766924719500000	    -21.38739252628583300000	      5.83146025210055010000	    123.26235072368107000000	    113.93665741639616000000	      0.00000000000000000000	      0.00000000000000000000
      1.23639999999999990000	     -4.10496026581494180000	      1.81388938273087910000	     -3.15007338689489380000	      0.90538515468015701000	      1.01069586619306520000	     -0.28443638842362540000	     26.31825165914552400000	      4.18821581565610760000	     11.88769905344971400000	    -12.95517793735843300000	      9.00242042140244610000	     -0.00000000000000000126	      0.00000000000000000242	    -15.42559283626963000000	      6.32241318711873390000	      1.17527874386553940000	    -43.85049591262314600000	    -23.84040702094710400000	     -0.00000000000000000025	      0.00000000000000000053	     -4.02991491598013770000	      0.58261614650387017000	    -16.77058074073738700000	    -48.68777167908409400000	    -21.65492212706680100000	     -7.08793177158191940000	     81.33629864837379800000	    105.26260724867608000000	      0.00000000000000000019	      0.00000000000000000005	    -26.87595984550793900000	    -21.32075468632940500000	      5.80450558710469530000	    123.17844386521267000000	    113.95404163384613000000	     -0.00000000000000000005	     -0.00000000000000000012
      1.23740000000000010000	     -4.04347603105721020000	      1.77678521742354610000	     -3.19006617088317630000	      0.90534845809127185000	      1.01024200726877570000	     -0.28432202297996129000	     26.20416705997465500000	      4.25147065722278140000	     11.82902904219631100000	    -12.99446460862347200000	      9.04073267314600850000	     -0.00000000000000000241	      0.00000000000000000767	    -15.24186770462414800000	      6.24299291251166280000	      0.96763769026750368000	    -44.51788879295763500000	    -23.67994659806468900000	     -0.00000000000000000158	      0.00000000000000000059	     -4.13394555275894680000	      0.63237823782953528000	    -16.65822638995167200000	    -48.57508534208643200000	    -21.63133927021681300000	     -7.06798438762902670000	     81.32657267701189600000	    105.24381472022756000000	      0.00000000000000000068	     -0.00000000000000000046	    -26.89024674583947300000	    -21.25292028727673700000	      5.77659010834088970000	    123.09286445414109000000	    113.97068332765237000000	     -0.00000000000000000021	      0.00000000000000000049
      1.23839999999999990000	     -3.98345078564802300000	      1.73804946031287510000	     -3.23016063781582790000	      0.90531005807477416000	      1.00977671555588720000	     -0.28420747405480201000	     26.09195919576259800000	      4.31652094143382210000	     11.76851386256111500000	    -13.03964121148281100000	      9.07204603576222010000	     -0.00000000000000000128	      0.00000000000000001507	    -15.05571173888633600000	      6.16031931308310640000	      0.76066489049579167000	    -45.18535714227020600000	    -23.51844152114627600000	     -0.00000000000000000248	      0.00000000000000000020	     -4.23656387466798900000	      0.68403455092733800000	    -16.54486273198457600000	    -48.46189928184178100000	    -21.60913675635284300000	     -7.04752882533164730000	     81.31732838531837600000	    105.22421328265720000000	      0.00000000000000000111	     -0.00000000000000000054	    -26.90499135062471200000	    -21.18389747408151900000	      5.74778434715076880000	    123.00557839182558000000	    113.98650198687753000000	     -0.00000000000000000055	      0.00000000000000000204
      1.23940000000000010000	     -3.92476412896189420000	      1.69773375029855230000	     -3.27029799229473510000	      0.90527004040997539000	      1.00930016388066380000	     -0.28409285748824253000	     25.98142779317685600000	      4.38326460035399100000	     11.70629069389288200000	    -13.09047655424631400000	      9.09690578089282910000	     -0.00000000000000000018	      0.00000000000000002366	    -14.86732231694770500000	      6.07446689526735820000	      0.55457079145371502000	    -45.85275254291822500000	    -23.35593847578180200000	     -0.00000000000000000245	     -0.00000000000000000121	     -4.33789682299051460000	      0.73752520158985391000	    -16.43053636879004000000	    -48.34821374480965500000	    -21.58832005007677400000	     -7.02656538542836810000	     81.30859514464505400000	    105.20384174799484000000	      0.00000000000000000163	     -0.00000000000000000037	    -26.92015753960358600000	    -21.11375355418380900000	      5.71814779890690070000	    122.91662192242956000000	    114.00138258943406000000	     -0.00000000000000000082	      0.00000000000000000332
      1.24039999999999990000	     -3.86737099407686680000	      1.65588554345198350000	     -3.31055445524710290000	      0.90522842885555066000	      1.00881242996460640000	     -0.28397810614839836000	     25.87250991090203600000	      4.45167833752830600000	     11.64272400962127200000	    -13.14683760545457300000	      9.11463319513594610000	      0.00000000000000000275	      0.00000000000000003348	    -14.67681664145245800000	      5.98553434846650310000	      0.34942391215570373000	    -46.51991705296917700000	    -23.19248351619675900000	     -0.00000000000000000175	     -0.00000000000000000183	     -4.43799111543749000000	      0.79279463203264988000	    -16.31515836304753700000	    -48.23403631489488000000	    -21.56890109704629000000	     -7.00509770605021750000	     81.30039477135697700000	    105.18273555131286000000	      0.00000000000000000215	     -0.00000000000000000048	    -26.93570993040411600000	    -21.04254107130824300000	      5.68774606115536320000	    122.82601556670426000000	    114.01522556423170000000	     -0.00000000000000000073	      0.00000000000000000456
      1.24140000000000010000	     -3.81127763387014080000	      1.61260974085152280000	     -3.35127044050389290000	      0.90518522057213813000	      1.00831345407503670000	     -0.28386281749921877000	     25.76526655899589700000	      4.52178101994462270000	     11.57795551060155100000	    -13.20871145922685700000	      9.12515921776836160000	      0.00000000000000000717	      0.00000000000000004603	    -14.48428446370933100000	      5.89374166782557470000	      0.14506224959859687000	    -47.18661920393825700000	    -23.02815107946760500000	     -0.00000000000000000145	     -0.00000000000000000251	     -4.53683350791158000000	      0.84971586913597441000	    -16.19838767201837400000	    -48.11940824473651900000	    -21.55089174948856400000	     -6.98313216355428420000	     81.29276043811361800000	    105.16092406755443000000	      0.00000000000000000242	     -0.00000000000000000112	    -26.95161641245747200000	    -20.97030622309285900000	      5.65664577847805550000	    122.73378532173666000000	    114.02794493883222000000	     -0.00000000000000000023	      0.00000000000000000593
      1.24239999999999990000	     -3.75653794967237120000	      1.56796278699175360000	     -3.39246617746608250000	      0.90514040325763256000	      1.00780316677146730000	     -0.28374700661969493000	     25.65976677652098600000	      4.59351374024816210000	     11.51209734330107900000	    -13.27601689069084400000	      9.12822939507681320000	      0.00000000000000000944	      0.00000000000000006227	    -14.28970987639810100000	      5.79918191707446610000	     -0.05839696044651468400	    -47.85276588915084500000	    -22.86295639855679000000	     -0.00000000000000000464	     -0.00000000000000000294	     -4.63435928667035220000	      0.90823060307423820000	    -16.08019305534755000000	    -48.00435496036792700000	    -21.53429813355677100000	     -6.96067179657255150000	     81.28570252424222500000	    105.13844303070336000000	      0.00000000000000000175	     -0.00000000000000000140	    -26.96785483062582100000	    -20.89709910454556400000	      5.62491149580498640000	    122.63994430069464000000	    114.03946269672913000000	      0.00000000000000000027	      0.00000000000000000633
      1.24340000000000010000	     -3.70325148981484760000	      1.52196982806120840000	     -3.43395360313085170000	      0.90509395168215911000	      1.00728146781412550000	     -0.28363095799697863000	     25.55610687043549200000	      4.66677333803958310000	     11.44525414645756500000	    -13.34863922174560900000	      9.12348226879246660000	      0.00000000000000001043	      0.00000000000000008126	    -14.09298925718374700000	      5.70186870432989060000	     -0.26065506298962243000	    -48.51835940803570000000	    -22.69687684805725400000	     -0.00000000000000000861	     -0.00000000000000000264	     -4.73045359894749580000	      0.96832723955462285000	    -15.96074316063357700000	    -47.88889187985421400000	    -21.51912404260672700000	     -6.93771826245597720000	     81.27921613118017800000	    105.11533172782798000000	     -0.00000000000000000050	     -0.00000000000000000233	    -26.98441251015014000000	    -20.82297190097650100000	      5.59260571886124060000	    122.54449585952565000000	    114.04970978426596000000	      0.00000000000000000136	      0.00000000000000000574
